<svg xmlns="http://www.w3.org/2000/svg" viewBox="0 0 512 512">
  <rect width="512" height="512" rx="112" fill="#f4fbf7"/>
  <circle cx="256" cy="256" r="210" fill="none" stroke="#0b8b45" stroke-width="22"/>
  <path d="M104 298c47-31 71-59 96-105 17-30 46-22 41 15l-12 73c-5 35 19 65 54 68l77 3c43 2 73-20 89-61" fill="none" stroke="#0b8b45" stroke-width="26" stroke-linecap="round"/>
  <path d="M201 194c-38-26-68-49-96-76m103 70-61-101m76 94-22-105" fill="none" stroke="#0b8b45" stroke-width="22" stroke-linecap="round"/>
  <path d="M272 142c0-33 34-57 67-43 25-27 70-14 73 24 38 10 48 54 21 81 7 35-34 59-64 40-28 27-74 13-74-23-41-4-51-58-23-79z" fill="none" stroke="#0b8b45" stroke-width="18"/>
  <circle cx="424" cy="352" r="20" fill="#d5222a"/>
</svg>
